<svg width="22" height="23" viewBox="0 0 22 23" fill="none" xmlns="http://www.w3.org/2000/svg">
<path fill-rule="evenodd" clip-rule="evenodd" d="M6.875 0.719971H15.125C18.9214 0.719971 22 3.7986 22 7.59497V15.845C22 19.6413 18.9214 22.72 15.125 22.72H6.875C3.07862 22.72 0 19.6413 0 15.845V7.59497C0 3.7986 3.07862 0.719971 6.875 0.719971ZM15.125 20.6575C17.7787 20.6575 19.9375 18.4987 19.9375 15.845V7.59497C19.9375 4.94122 17.7787 2.78247 15.125 2.78247H6.875C4.22125 2.78247 2.0625 4.94122 2.0625 7.59497V15.845C2.0625 18.4987 4.22125 20.6575 6.875 20.6575H15.125Z" fill="black"/>
<path fill-rule="evenodd" clip-rule="evenodd" d="M5.5 11.72C5.5 8.6826 7.96263 6.21997 11 6.21997C14.0374 6.21997 16.5 8.6826 16.5 11.72C16.5 14.7573 14.0374 17.22 11 17.22C7.96263 17.22 5.5 14.7573 5.5 11.72ZM7.5625 11.72C7.5625 13.6147 9.10525 15.1575 11 15.1575C12.8948 15.1575 14.4375 13.6147 14.4375 11.72C14.4375 9.82385 12.8948 8.28247 11 8.28247C9.10525 8.28247 7.5625 9.82385 7.5625 11.72Z" fill="black"/>
<circle cx="16.9126" cy="5.80746" r="0.732875" fill="black"/>
</svg>
